<svg id="svg" version="1.1" xmlns="http://www.w3.org/2000/svg" xmlns:xlink="http://www.w3.org/1999/xlink" width="400" height="398.1481481481481" viewBox="0, 0, 400,398.1481481481481"><g id="svgg"><path id="path0" d="M49.602 168.549 C 48.725 168.730,47.154 168.889,46.110 168.901 C 45.066 168.914,43.901 169.086,43.520 169.284 C 43.140 169.482,42.022 169.856,41.036 170.116 C 40.050 170.375,38.705 170.822,38.048 171.108 C 37.390 171.394,36.225 171.859,35.458 172.141 C 34.691 172.424,33.119 173.249,31.964 173.977 C 30.810 174.704,29.704 175.299,29.508 175.299 C 29.311 175.299,29.090 175.433,29.017 175.598 C 28.944 175.762,28.195 176.412,27.352 177.042 C 26.509 177.671,24.673 179.259,23.272 180.570 C 20.264 183.384,20.363 183.504,20.224 176.892 L 20.120 171.912 12.849 171.804 L 5.578 171.695 5.578 223.307 L 5.578 274.918 12.849 274.810 L 20.120 274.701 20.221 237.485 L 20.323 200.269 21.410 198.840 C 23.373 196.258,23.675 195.918,26.841 192.725 C 30.114 189.424,33.603 186.962,37.649 185.099 C 41.267 183.433,41.483 183.354,43.625 182.908 C 44.721 182.679,46.459 182.308,47.487 182.083 C 50.155 181.498,55.115 181.578,58.367 182.257 C 59.900 182.577,61.693 182.951,62.351 183.087 C 66.768 184.004,76.892 191.459,76.892 193.795 C 76.892 193.950,77.341 194.665,77.888 195.383 C 78.436 196.101,78.884 196.950,78.884 197.269 C 78.884 197.588,79.058 198.022,79.270 198.234 C 79.482 198.446,80.043 199.782,80.516 201.202 C 82.634 207.555,82.816 210.941,82.843 244.522 L 82.869 274.900 90.040 274.900 L 97.211 274.900 97.211 241.989 C 97.211 213.455,97.126 208.612,96.570 205.573 L 95.929 202.068 97.808 199.162 C 99.893 195.939,105.252 190.383,107.989 188.608 C 108.963 187.975,109.851 187.357,109.960 187.235 C 110.535 186.593,117.673 183.422,119.323 183.076 C 119.980 182.938,121.325 182.646,122.311 182.425 C 133.288 179.974,145.484 183.531,151.838 191.036 C 152.580 191.912,153.389 192.844,153.635 193.106 C 154.244 193.753,157.769 201.037,157.769 201.647 C 157.769 201.915,157.937 202.685,158.143 203.358 C 159.298 207.131,159.395 209.932,159.477 241.833 L 159.562 274.701 167.008 274.810 L 174.455 274.918 174.488 245.327 C 174.530 208.303,174.030 201.529,170.717 194.223 C 168.343 188.988,167.537 187.485,165.692 184.861 C 160.867 177.994,153.222 172.366,145.817 170.231 C 138.144 168.018,133.533 167.748,123.108 168.902 C 112.741 170.049,102.855 175.107,94.520 183.530 C 90.844 187.245,90.448 187.398,89.291 185.558 C 85.894 180.152,75.570 171.713,72.354 171.713 C 72.055 171.713,71.588 171.444,71.315 171.116 C 71.042 170.787,70.449 170.518,69.998 170.518 C 69.546 170.518,68.179 170.183,66.959 169.773 C 62.868 168.400,53.511 167.740,49.602 168.549 M257.288 169.140 C 257.170 169.258,256.109 169.535,254.931 169.754 C 247.553 171.131,243.400 172.770,237.126 176.782 C 233.056 179.384,228.576 183.388,225.036 187.588 C 223.184 189.785,223.108 189.495,223.108 180.270 L 223.108 171.695 215.837 171.804 L 208.566 171.912 208.465 223.406 L 208.364 274.900 215.736 274.900 L 223.108 274.900 223.108 241.027 L 223.108 207.154 224.199 205.470 C 224.800 204.543,225.389 203.695,225.507 203.586 C 225.626 203.476,226.374 202.490,227.170 201.394 C 230.656 196.594,241.170 188.048,243.589 188.048 C 243.884 188.048,244.324 187.808,244.567 187.516 C 244.810 187.223,245.773 186.743,246.707 186.448 C 247.642 186.153,248.586 185.791,248.805 185.642 C 249.024 185.494,250.458 185.065,251.992 184.690 C 253.526 184.314,255.408 183.848,256.175 183.655 C 256.942 183.461,258.761 183.227,260.217 183.135 C 263.947 182.898,263.745 183.326,263.745 175.674 L 263.745 168.924 260.624 168.924 C 258.908 168.924,257.406 169.021,257.288 169.140 M332.869 169.388 C 331.992 169.602,330.724 169.943,330.051 170.147 C 329.378 170.351,328.330 170.518,327.721 170.518 C 327.112 170.518,326.050 170.764,325.359 171.064 C 324.669 171.364,323.297 171.847,322.311 172.137 C 318.262 173.326,310.287 177.985,306.744 181.231 C 303.750 183.974,303.586 183.770,303.586 177.291 L 303.586 171.713 296.414 171.713 L 289.243 171.713 289.243 251.195 L 289.243 330.677 296.412 330.677 L 303.581 330.677 303.683 297.311 C 303.796 260.159,303.590 262.575,306.435 265.152 C 310.933 269.227,318.549 273.452,324.502 275.176 C 325.598 275.493,327.122 275.936,327.888 276.161 C 334.182 278.007,348.759 277.877,355.378 275.917 C 360.652 274.356,367.307 271.398,369.958 269.438 C 370.636 268.936,371.383 268.526,371.618 268.526 C 371.853 268.526,372.105 268.384,372.178 268.211 C 372.251 268.037,373.028 267.365,373.904 266.717 C 377.027 264.407,380.411 260.949,384.065 256.334 C 386.330 253.474,389.486 247.799,391.022 243.825 C 391.403 242.839,391.876 241.721,392.073 241.340 C 392.269 240.960,392.430 240.366,392.430 240.021 C 392.430 239.675,392.698 238.552,393.026 237.525 C 394.132 234.060,394.978 227.747,394.959 223.108 C 394.938 217.958,394.585 215.640,392.471 206.773 C 392.100 205.216,390.806 201.823,389.659 199.402 C 389.244 198.526,388.845 197.629,388.773 197.410 C 388.152 195.528,382.514 188.023,379.317 184.823 C 372.377 177.876,362.486 172.110,354.781 170.519 C 353.904 170.338,352.201 169.971,350.996 169.703 C 348.258 169.096,335.016 168.866,332.869 169.388 M347.211 182.461 C 348.307 182.710,349.788 183.012,350.502 183.134 C 351.216 183.255,351.899 183.514,352.019 183.709 C 352.140 183.904,352.515 184.064,352.852 184.064 C 353.439 184.064,359.092 186.701,360.750 187.748 C 363.831 189.693,365.101 190.708,367.824 193.404 C 370.562 196.115,373.307 199.510,373.307 200.188 C 373.307 200.322,373.621 200.771,374.004 201.185 C 375.442 202.738,377.157 206.849,379.322 213.932 C 380.123 216.552,380.028 230.118,379.187 233.068 C 376.377 242.934,370.677 251.932,364.542 256.183 C 363.775 256.715,362.834 257.437,362.450 257.788 C 361.450 258.703,353.913 262.340,351.793 262.930 C 350.807 263.205,349.629 263.572,349.176 263.745 C 344.224 265.640,332.058 264.943,325.100 262.364 C 324.114 261.999,322.948 261.595,322.510 261.467 C 322.072 261.338,321.265 260.930,320.717 260.560 C 320.169 260.190,318.737 259.365,317.534 258.728 C 314.103 256.911,308.521 251.752,305.250 247.374 L 303.586 245.147 303.586 223.171 C 303.586 208.786,303.723 201.195,303.984 201.195 C 304.203 201.195,304.382 201.004,304.382 200.770 C 304.382 199.359,311.979 191.509,315.936 188.832 C 318.577 187.045,320.710 185.932,323.904 184.674 C 324.890 184.286,326.056 183.823,326.494 183.645 C 326.932 183.467,327.829 183.229,328.486 183.116 C 329.143 183.004,330.936 182.649,332.470 182.327 C 335.664 181.658,344.003 181.734,347.211 182.461 " stroke="none" fill="#272727" fill-rule="evenodd"></path><path id="path1" d="M195.748 122.610 L 6.038 122.710 5.529 124.204 C 4.748 126.496,4.873 134.141,5.718 135.757 L 6.395 137.052 200.110 137.046 C 321.230 137.042,394.049 136.898,394.422 136.663 C 395.264 136.131,395.534 124.467,394.729 123.379 C 394.023 122.423,412.773 122.496,195.748 122.610 " stroke="none" fill="#69cbcb" fill-rule="evenodd"></path><path id="path2" d="M0.000 199.203 L 0.000 398.406 200.000 398.406 L 400.000 398.406 400.000 199.203 L 400.000 0.000 200.000 0.000 L 0.000 0.000 0.000 199.203 M395.532 129.084 C 395.595 132.699,395.546 136.061,395.425 136.554 L 395.204 137.451 200.092 137.351 L 4.980 137.251 4.872 129.780 L 4.763 122.310 200.091 122.410 L 395.418 122.510 395.532 129.084 M63.432 168.043 C 65.342 168.439,67.030 168.890,67.184 169.043 C 67.338 169.197,67.961 169.323,68.569 169.323 C 69.177 169.323,69.785 169.502,69.920 169.721 C 70.056 169.940,70.610 170.120,71.152 170.120 C 71.693 170.120,72.240 170.388,72.366 170.717 C 72.492 171.046,72.928 171.315,73.335 171.315 C 76.364 171.315,87.980 180.964,89.742 184.943 C 90.437 186.513,90.595 186.436,94.192 182.769 C 98.420 178.459,102.844 174.900,103.974 174.900 C 104.199 174.900,104.382 174.758,104.382 174.584 C 104.382 174.238,110.347 171.315,111.053 171.315 C 111.293 171.315,111.997 171.062,112.617 170.754 C 114.552 169.792,115.688 169.385,117.131 169.138 C 117.898 169.007,119.512 168.730,120.717 168.523 C 121.922 168.317,123.535 167.964,124.300 167.739 C 127.756 166.725,142.746 167.713,144.077 169.043 C 144.230 169.197,144.943 169.323,145.660 169.323 C 146.378 169.323,147.076 169.502,147.211 169.721 C 147.347 169.940,147.783 170.120,148.182 170.120 C 148.580 170.120,149.130 170.388,149.402 170.717 C 149.675 171.046,150.325 171.315,150.846 171.315 C 151.367 171.315,151.793 171.494,151.793 171.713 C 151.793 171.932,152.051 172.112,152.367 172.112 C 154.181 172.112,162.195 178.627,164.863 182.271 C 165.665 183.367,166.459 184.323,166.627 184.396 C 166.795 184.469,166.932 184.721,166.932 184.956 C 166.932 185.191,167.345 185.938,167.850 186.616 C 168.666 187.711,170.215 190.775,171.394 193.625 C 171.621 194.173,171.964 194.933,172.158 195.313 C 172.352 195.694,172.510 196.369,172.510 196.813 C 172.510 197.257,172.668 197.932,172.861 198.312 C 174.745 202.022,174.985 206.573,175.155 241.922 L 175.316 275.279 174.411 275.502 C 173.913 275.624,170.279 275.674,166.335 275.611 L 159.163 275.498 158.899 243.028 C 158.646 211.870,158.460 205.456,157.787 204.582 C 157.618 204.363,157.158 203.108,156.765 201.793 C 156.372 200.478,155.899 199.232,155.714 199.024 C 155.530 198.816,155.378 198.399,155.378 198.098 C 155.378 197.278,152.111 192.456,150.322 190.637 C 147.379 187.644,145.897 186.681,140.637 184.346 C 136.867 182.673,128.988 182.320,121.315 183.481 C 119.470 183.760,113.012 186.189,112.351 186.852 C 112.241 186.962,111.479 187.394,110.657 187.812 C 109.836 188.230,109.163 188.723,109.163 188.907 C 109.163 189.092,108.909 189.243,108.598 189.243 C 107.977 189.243,99.602 197.373,99.602 197.976 C 99.602 198.181,99.342 198.609,99.025 198.926 C 98.010 199.941,96.788 202.427,97.076 202.892 C 97.874 204.184,98.119 212.295,98.267 242.320 L 98.428 275.278 97.521 275.501 C 97.022 275.624,93.386 275.674,89.442 275.611 L 82.271 275.498 82.020 243.227 C 81.869 223.908,81.602 209.997,81.354 208.566 C 80.646 204.480,80.088 202.240,79.678 201.829 C 79.461 201.612,79.283 201.032,79.283 200.541 C 79.283 200.050,79.104 199.538,78.884 199.402 C 78.665 199.267,78.486 198.889,78.486 198.563 C 78.486 198.237,77.859 196.989,77.092 195.790 C 76.325 194.591,75.697 193.522,75.697 193.413 C 75.697 192.527,67.779 185.657,66.757 185.657 C 66.607 185.657,65.554 185.226,64.418 184.700 C 59.491 182.417,45.689 182.417,40.762 184.700 C 39.625 185.226,38.487 185.657,38.234 185.657 C 37.980 185.657,37.297 185.987,36.715 186.389 C 36.133 186.792,35.388 187.239,35.060 187.383 C 34.333 187.701,32.943 188.563,32.669 188.866 C 32.560 188.987,31.753 189.604,30.876 190.238 C 29.190 191.456,23.906 196.689,23.903 197.143 C 23.902 197.290,23.408 197.948,22.807 198.606 C 20.608 201.008,20.714 199.071,20.613 238.645 L 20.518 275.498 13.347 275.611 C 9.402 275.674,5.772 275.625,5.279 275.504 L 4.382 275.284 4.382 223.512 C 4.382 172.735,4.397 171.733,5.153 171.329 C 6.221 170.757,20.185 170.776,20.539 171.349 C 20.687 171.588,20.777 173.918,20.741 176.529 C 20.667 181.921,20.734 182.003,23.239 179.569 C 24.204 178.631,25.571 177.421,26.276 176.880 C 26.982 176.339,27.799 175.672,28.094 175.398 C 28.388 175.125,28.820 174.900,29.055 174.900 C 29.290 174.900,29.482 174.740,29.482 174.544 C 29.482 173.770,39.345 169.323,41.061 169.323 C 41.679 169.323,42.295 169.143,42.430 168.924 C 42.566 168.705,43.159 168.522,43.749 168.518 C 44.338 168.514,45.717 168.274,46.813 167.985 C 49.966 167.152,59.302 167.185,63.432 168.043 M264.030 168.447 C 264.548 168.777,264.846 182.453,264.351 183.253 C 264.211 183.480,263.058 183.665,261.789 183.665 C 260.520 183.665,258.962 183.829,258.326 184.030 C 257.691 184.230,255.737 184.696,253.984 185.065 C 252.231 185.434,250.349 185.921,249.801 186.148 C 249.253 186.375,248.446 186.688,248.008 186.844 C 244.577 188.065,236.759 192.711,234.617 194.802 C 234.045 195.360,232.643 196.713,231.501 197.809 C 229.354 199.870,225.474 204.769,224.478 206.679 C 223.999 207.598,223.909 213.024,223.907 241.255 C 223.905 266.766,223.791 274.855,223.426 275.219 C 222.922 275.724,209.444 275.933,208.200 275.455 C 207.369 275.136,207.218 172.224,208.048 171.394 C 208.594 170.849,222.561 170.708,223.398 171.240 C 223.754 171.466,223.897 173.567,223.923 178.963 C 223.942 183.039,224.068 186.485,224.204 186.621 C 224.339 186.756,225.897 185.384,227.666 183.573 C 230.849 180.314,231.308 179.903,234.512 177.440 C 237.476 175.162,243.720 171.883,246.414 171.189 C 246.853 171.076,248.195 170.610,249.397 170.153 C 250.599 169.696,252.221 169.323,253.002 169.323 C 253.783 169.323,254.593 169.152,254.801 168.944 C 255.010 168.735,256.525 168.502,258.168 168.425 C 259.811 168.349,261.693 168.253,262.351 168.213 C 263.008 168.173,263.764 168.278,264.030 168.447 M348.207 168.536 C 354.608 169.443,357.271 170.031,358.356 170.775 C 358.788 171.072,359.463 171.315,359.855 171.315 C 360.247 171.315,360.880 171.481,361.260 171.684 C 361.641 171.887,363.073 172.546,364.442 173.149 C 365.812 173.751,366.932 174.391,366.932 174.572 C 366.932 174.753,367.205 174.900,367.538 174.900 C 368.169 174.900,371.414 176.867,371.647 177.390 C 371.720 177.555,371.965 177.689,372.192 177.689 C 372.418 177.689,373.183 178.182,373.892 178.785 C 374.600 179.387,375.922 180.479,376.830 181.211 C 379.336 183.229,382.340 186.489,385.333 190.438 C 386.234 191.626,387.758 194.156,389.534 197.410 C 389.773 197.849,390.453 199.283,391.045 200.598 C 391.637 201.912,392.280 203.299,392.475 203.680 C 392.670 204.060,392.829 204.688,392.829 205.074 C 392.829 205.461,393.211 206.763,393.679 207.968 C 396.544 215.358,395.777 235.914,392.397 242.325 C 392.196 242.706,392.032 243.257,392.032 243.550 C 392.032 244.263,387.262 253.549,386.809 253.718 C 386.614 253.792,386.454 254.028,386.454 254.243 C 386.454 254.590,385.938 255.348,383.665 258.341 C 381.649 260.996,374.008 268.048,371.765 269.323 C 371.187 269.651,370.177 270.297,369.520 270.757 C 367.223 272.367,359.379 275.816,356.972 276.275 C 356.205 276.421,355.219 276.687,354.781 276.867 C 351.634 278.154,340.939 278.822,335.060 278.098 C 332.978 277.841,330.558 277.545,329.681 277.438 C 328.805 277.332,327.729 277.091,327.291 276.902 C 326.853 276.713,325.912 276.459,325.202 276.338 C 324.491 276.216,323.157 275.753,322.238 275.309 C 321.319 274.865,320.360 274.502,320.107 274.502 C 319.647 274.502,313.921 271.734,313.546 271.330 C 313.436 271.212,312.719 270.769,311.952 270.345 C 311.185 269.921,309.342 268.597,307.857 267.402 C 306.371 266.207,305.065 265.320,304.955 265.430 C 304.844 265.541,304.763 280.262,304.774 298.145 L 304.794 330.659 303.891 330.881 C 303.394 331.003,299.761 331.052,295.817 330.990 L 288.645 330.876 288.645 250.996 L 288.645 171.116 296.164 171.007 C 305.333 170.875,304.714 170.487,304.735 176.370 C 304.756 182.037,304.365 181.833,308.804 178.499 C 310.856 176.958,312.748 175.697,313.007 175.697 C 313.267 175.697,313.539 175.563,313.612 175.398 C 313.835 174.897,319.553 172.112,320.360 172.112 C 320.775 172.112,321.116 171.932,321.116 171.713 C 321.116 171.494,321.643 171.315,322.287 171.315 C 322.932 171.315,323.566 171.142,323.696 170.931 C 324.807 169.134,341.157 167.536,348.207 168.536 M335.458 182.930 C 329.939 183.456,325.978 184.352,324.920 185.313 C 324.712 185.503,324.174 185.661,323.725 185.666 C 323.276 185.671,322.460 186.026,321.912 186.454 C 321.365 186.883,320.613 187.237,320.243 187.242 C 319.872 187.247,319.461 187.425,319.329 187.639 C 319.197 187.852,318.490 188.311,317.758 188.658 C 317.025 189.006,315.733 189.907,314.886 190.661 C 314.040 191.415,313.218 192.031,313.061 192.032 C 312.705 192.032,308.132 196.791,307.263 198.065 C 306.911 198.582,306.203 199.404,305.690 199.893 L 304.756 200.782 304.774 223.163 L 304.792 245.544 306.915 248.170 C 309.251 251.059,312.577 254.582,312.970 254.582 C 313.107 254.582,313.953 255.209,314.849 255.976 C 315.745 256.743,316.715 257.371,317.004 257.371 C 317.293 257.371,317.530 257.523,317.530 257.708 C 317.530 257.894,318.247 258.370,319.124 258.765 C 320.000 259.160,320.717 259.636,320.717 259.821 C 320.717 260.007,321.040 260.159,321.434 260.159 C 321.829 260.159,322.322 260.309,322.530 260.492 C 323.014 260.917,329.015 262.755,331.873 263.354 C 335.502 264.115,349.835 263.461,350.424 262.508 C 350.546 262.312,350.988 262.151,351.407 262.151 C 352.120 262.151,355.435 260.797,357.826 259.528 C 361.563 257.545,362.151 257.195,362.151 256.951 C 362.151 256.802,362.913 256.180,363.845 255.570 C 364.776 254.959,365.986 253.987,366.534 253.409 C 369.389 250.394,371.450 247.948,371.822 247.131 C 372.052 246.627,372.390 246.215,372.574 246.215 C 372.758 246.215,372.908 246.039,372.908 245.824 C 372.908 245.610,373.536 244.453,374.303 243.254 C 375.070 242.055,375.697 240.935,375.697 240.766 C 375.697 240.509,376.617 237.928,378.086 234.064 C 379.222 231.076,379.696 219.696,378.837 216.042 C 378.064 212.755,376.408 207.386,376.045 206.992 C 375.854 206.784,375.697 206.372,375.697 206.076 C 375.697 205.781,375.113 204.607,374.399 203.467 C 373.684 202.327,372.871 200.946,372.590 200.398 C 371.625 198.513,365.819 192.335,363.577 190.808 C 362.796 190.276,362.156 189.706,362.154 189.542 C 362.153 189.377,361.882 189.243,361.554 189.243 C 361.225 189.243,360.956 189.106,360.956 188.939 C 360.956 188.772,360.610 188.458,360.187 188.242 C 356.703 186.461,354.900 185.635,353.187 185.032 C 352.092 184.646,351.025 184.181,350.817 183.998 C 350.609 183.815,349.835 183.665,349.097 183.665 C 348.360 183.665,347.454 183.510,347.085 183.320 C 346.136 182.831,339.008 182.592,335.458 182.930 " stroke="none" fill="#fbfbfb" fill-rule="evenodd"></path><path id="path3" d="M4.841 125.199 C 4.873 126.788,4.964 127.550,5.043 126.892 C 5.121 126.235,5.370 125.025,5.596 124.204 L 6.008 122.710 195.733 122.610 L 385.458 122.509 195.120 122.410 L 4.781 122.311 4.841 125.199 M392.727 122.590 C 395.139 122.825,395.298 123.332,395.148 130.321 C 395.046 135.090,394.900 136.361,394.422 136.663 C 394.049 136.898,321.228 137.042,200.114 137.046 L 6.403 137.052 5.909 136.155 C 5.637 135.662,5.292 134.452,5.141 133.466 C 4.909 131.947,4.875 132.100,4.923 134.462 L 4.980 137.251 200.092 137.351 L 395.204 137.451 395.425 136.554 C 395.546 136.061,395.595 132.699,395.532 129.084 L 395.418 122.510 393.227 122.468 C 391.557 122.436,391.438 122.465,392.727 122.590 M47.012 167.985 L 45.219 168.507 47.610 168.217 C 50.684 167.846,59.265 167.854,62.351 168.232 L 64.741 168.525 62.550 167.934 C 59.788 167.188,49.639 167.222,47.012 167.985 M123.506 167.954 L 121.713 168.499 124.303 168.214 C 127.645 167.845,136.172 167.856,139.243 168.232 L 141.633 168.525 139.442 167.945 C 136.552 167.179,126.035 167.185,123.506 167.954 M262.351 168.483 L 263.944 168.725 263.944 175.896 L 263.944 183.068 262.550 183.314 L 261.155 183.560 262.626 183.613 C 264.629 183.684,264.613 183.753,264.560 175.797 C 264.509 168.109,264.508 168.105,262.151 168.190 L 260.757 168.241 262.351 168.483 M339.757 168.423 C 341.135 168.501,343.286 168.500,344.538 168.421 C 345.789 168.343,344.661 168.279,342.032 168.280 C 339.402 168.280,338.379 168.345,339.757 168.423 M118.327 168.924 C 117.535 169.436,118.530 169.436,119.721 168.924 L 120.518 168.582 119.721 168.560 C 119.283 168.548,118.655 168.712,118.327 168.924 M254.781 168.924 C 254.487 169.400,255.268 169.400,256.375 168.924 C 257.086 168.619,257.057 168.579,256.099 168.554 C 255.510 168.538,254.916 168.705,254.781 168.924 M331.474 168.945 C 331.046 169.237,331.328 169.277,332.470 169.085 C 334.447 168.755,334.765 168.524,333.234 168.532 C 332.595 168.535,331.803 168.721,331.474 168.945 M349.402 168.924 C 350.938 169.416,351.757 169.416,350.996 168.924 C 350.667 168.712,349.950 168.553,349.402 168.572 L 348.406 168.605 349.402 168.924 M37.649 170.310 C 36.554 170.826,35.935 171.263,36.275 171.282 C 36.615 171.300,37.063 171.151,37.271 170.950 C 37.479 170.749,38.546 170.314,39.641 169.982 C 40.902 169.600,41.268 169.377,40.637 169.375 C 40.090 169.373,38.745 169.794,37.649 170.310 M67.762 169.466 C 68.232 169.871,70.162 170.112,69.930 169.737 C 69.789 169.509,69.207 169.323,68.635 169.323 C 68.064 169.323,67.671 169.387,67.762 169.466 M114.940 169.721 C 114.657 170.179,115.302 170.179,116.733 169.721 C 117.684 169.416,117.672 169.400,116.458 169.362 C 115.759 169.341,115.076 169.502,114.940 169.721 M145.053 169.466 C 145.523 169.871,147.453 170.112,147.221 169.737 C 147.080 169.509,146.497 169.323,145.926 169.323 C 145.355 169.323,144.962 169.387,145.053 169.466 M250.598 169.733 C 250.180 170.011,250.540 170.052,251.793 169.871 C 254.024 169.547,254.343 169.321,252.556 169.329 C 251.808 169.332,250.926 169.514,250.598 169.733 M326.295 169.792 C 325.747 170.020,324.872 170.373,324.351 170.576 C 323.830 170.780,323.500 171.044,323.620 171.163 C 323.739 171.282,324.207 171.181,324.661 170.938 C 325.115 170.695,326.609 170.250,327.982 169.950 C 330.238 169.455,330.325 169.401,328.884 169.390 C 328.008 169.383,326.843 169.563,326.295 169.792 M353.586 169.730 C 354.462 169.905,355.979 170.326,356.957 170.664 C 358.867 171.326,359.533 171.311,358.067 170.640 C 356.337 169.848,354.315 169.323,353.159 169.366 C 352.156 169.404,352.216 169.455,353.586 169.730 M71.315 170.656 C 72.408 171.232,72.730 171.197,72.327 170.544 C 72.183 170.311,71.672 170.122,71.192 170.125 C 70.354 170.131,70.360 170.153,71.315 170.656 M112.526 170.704 C 111.520 171.465,111.956 171.473,113.401 170.720 C 114.028 170.392,114.262 170.123,113.921 170.122 C 113.579 170.121,112.952 170.383,112.526 170.704 M148.430 170.704 C 149.442 171.470,150.033 171.477,149.402 170.717 C 149.130 170.388,148.625 170.120,148.281 170.120 C 147.781 170.120,147.811 170.236,148.430 170.704 M247.809 170.717 C 246.508 171.461,246.963 171.469,248.659 170.733 C 249.397 170.413,249.731 170.150,249.402 170.149 C 249.074 170.148,248.357 170.404,247.809 170.717 M12.719 171.215 C 17.748 171.296,20.258 171.487,20.687 171.822 C 21.241 172.253,21.250 172.229,20.768 171.614 C 20.277 170.988,19.459 170.926,12.800 171.006 L 5.378 171.096 12.719 171.215 M208.048 171.394 C 207.218 172.224,207.369 275.136,208.200 275.455 C 209.444 275.933,222.922 275.724,223.426 275.219 C 223.791 274.855,223.905 266.766,223.907 241.255 C 223.909 213.024,223.999 207.598,224.478 206.679 C 225.474 204.769,229.354 199.870,231.501 197.809 C 232.643 196.713,234.045 195.360,234.617 194.802 C 235.895 193.555,241.752 189.727,244.325 188.457 C 245.367 187.942,246.160 187.462,246.087 187.389 C 245.755 187.057,239.959 190.268,236.853 192.505 C 233.171 195.155,227.236 201.509,224.471 205.759 C 223.735 206.891,223.698 208.249,223.506 241.018 L 223.307 275.100 215.737 275.100 L 208.167 275.100 208.167 223.307 L 208.167 171.514 215.737 171.514 L 223.307 171.514 223.414 179.781 C 223.528 188.480,223.615 188.822,225.199 186.753 C 225.744 186.041,227.513 184.139,229.131 182.526 C 230.748 180.913,231.664 179.837,231.165 180.135 C 230.667 180.433,228.979 182.059,227.415 183.748 C 225.851 185.438,224.434 186.734,224.265 186.630 C 224.096 186.526,223.942 183.090,223.923 178.995 C 223.897 173.574,223.755 171.466,223.398 171.240 C 222.561 170.708,208.594 170.849,208.048 171.394 M288.630 171.414 C 288.057 172.924,288.663 330.815,289.243 330.973 C 289.686 331.094,289.712 331.045,289.342 330.783 C 288.944 330.502,288.863 314.260,288.943 250.972 L 289.044 171.514 296.414 171.514 L 303.785 171.514 303.896 177.030 L 304.007 182.547 305.018 181.884 C 305.954 181.271,307.001 180.458,308.112 179.482 C 309.341 178.402,311.630 176.836,313.386 175.873 C 315.340 174.801,316.724 173.759,315.538 174.253 C 315.209 174.390,314.626 174.612,314.243 174.747 C 313.860 174.883,313.546 175.152,313.546 175.345 C 313.546 175.539,313.318 175.697,313.040 175.697 C 312.762 175.697,310.856 176.958,308.804 178.499 C 304.368 181.830,304.763 182.029,304.734 176.449 C 304.703 170.511,305.317 170.916,296.353 170.916 C 290.693 170.916,288.773 171.040,288.630 171.414 M4.648 171.580 C 3.993 172.235,4.355 275.203,5.013 275.455 C 5.926 275.806,20.237 275.753,20.457 275.398 C 20.558 275.234,17.118 275.100,12.811 275.100 L 4.980 275.100 4.980 223.207 C 4.980 194.666,4.965 171.315,4.947 171.315 C 4.929 171.315,4.794 171.434,4.648 171.580 M244.821 171.713 C 244.529 172.184,244.919 172.184,246.016 171.713 C 246.784 171.383,246.781 171.370,245.940 171.343 C 245.460 171.327,244.956 171.494,244.821 171.713 M31.376 173.219 C 30.336 173.815,29.485 174.449,29.484 174.629 C 29.483 174.808,30.003 174.584,30.639 174.131 C 31.276 173.678,31.948 173.301,32.133 173.294 C 32.319 173.287,32.818 173.018,33.243 172.696 C 34.500 171.746,33.415 172.049,31.376 173.219 M77.827 173.876 C 80.705 175.731,81.718 176.543,85.259 179.834 C 86.942 181.398,86.804 181.197,84.661 178.963 C 82.257 176.457,76.386 172.106,75.420 172.114 C 75.244 172.116,76.327 172.908,77.827 173.876 M153.781 173.143 C 154.764 173.706,155.661 174.300,155.773 174.463 C 155.884 174.627,156.525 175.080,157.196 175.470 C 158.619 176.297,164.386 182.065,165.712 183.987 C 166.212 184.712,166.731 185.195,166.865 185.061 C 166.999 184.927,166.928 184.693,166.708 184.540 C 166.488 184.388,165.655 183.367,164.856 182.271 C 162.281 178.738,154.180 172.099,152.466 172.116 C 152.205 172.119,152.797 172.581,153.781 173.143 M241.688 173.086 C 240.622 173.608,239.546 174.246,239.297 174.503 C 238.928 174.884,243.634 172.718,244.190 172.251 C 244.706 171.817,243.364 172.264,241.688 173.086 M317.786 172.975 C 316.940 173.402,316.327 173.830,316.422 173.925 C 316.517 174.020,317.478 173.661,318.557 173.126 C 319.635 172.591,320.249 172.164,319.920 172.176 C 319.592 172.188,318.631 172.548,317.786 172.975 M361.786 172.258 C 362.319 172.727,366.932 174.761,366.932 174.526 C 366.932 174.231,362.574 172.112,361.967 172.112 C 361.776 172.112,361.695 172.177,361.786 172.258 M105.677 173.604 C 104.965 173.958,104.382 174.389,104.382 174.561 C 104.382 174.805,106.674 173.697,107.537 173.036 C 108.008 172.674,106.808 173.041,105.677 173.604 M28.010 175.473 C 27.749 175.771,27.300 176.098,27.014 176.200 C 26.728 176.302,26.591 176.491,26.709 176.621 C 26.827 176.751,27.454 176.423,28.103 175.893 C 28.752 175.363,29.104 174.929,28.884 174.930 C 28.665 174.930,28.272 175.175,28.010 175.473 M101.594 176.227 C 98.731 178.268,94.854 181.673,95.394 181.673 C 95.554 181.673,96.253 181.142,96.947 180.493 C 97.640 179.844,99.522 178.321,101.130 177.107 C 104.244 174.755,104.597 174.086,101.594 176.227 M236.812 175.820 C 236.132 176.300,234.832 177.210,233.923 177.842 C 233.014 178.473,232.271 179.139,232.271 179.320 C 232.271 179.501,233.408 178.805,234.797 177.773 C 236.187 176.741,237.666 175.683,238.084 175.422 C 238.502 175.161,238.665 174.947,238.446 174.947 C 238.227 174.947,237.492 175.339,236.812 175.820 M367.948 175.213 C 368.156 175.385,369.402 176.225,370.717 177.082 C 377.786 181.684,383.722 188.032,388.145 195.719 C 389.185 197.526,390.037 198.792,390.038 198.532 C 390.041 197.815,385.865 190.919,384.374 189.179 C 383.875 188.596,382.899 187.431,382.206 186.590 C 380.492 184.508,378.682 182.700,376.776 181.165 C 375.898 180.459,374.600 179.387,373.892 178.785 C 373.183 178.182,372.418 177.689,372.192 177.689 C 371.965 177.689,371.720 177.555,371.647 177.390 C 371.483 177.022,368.254 174.900,367.857 174.900 C 367.699 174.900,367.740 175.041,367.948 175.213 M24.327 178.489 C 23.355 179.354,22.649 180.152,22.758 180.262 C 22.868 180.372,23.746 179.658,24.709 178.677 C 26.868 176.477,26.688 176.388,24.327 178.489 M21.912 180.876 C 21.912 181.096,21.643 181.275,21.315 181.275 C 20.986 181.275,20.717 181.460,20.717 181.687 C 20.717 181.967,20.974 181.962,21.514 181.673 C 22.223 181.294,22.631 180.478,22.112 180.478 C 22.002 180.478,21.912 180.657,21.912 180.876 M48.406 182.470 C 47.139 182.644,48.661 182.746,52.590 182.750 C 57.041 182.755,58.153 182.672,56.574 182.453 C 53.957 182.092,51.123 182.097,48.406 182.470 M88.085 183.045 C 88.434 183.496,89.017 184.308,89.380 184.850 C 89.743 185.391,90.040 185.645,90.040 185.414 C 90.040 185.183,89.457 184.370,88.745 183.609 C 88.033 182.848,87.736 182.594,88.085 183.045 M125.299 182.448 C 124.152 182.593,125.926 182.700,129.482 182.701 C 133.613 182.703,134.932 182.612,133.466 182.427 C 130.853 182.097,128.021 182.105,125.299 182.448 M335.060 182.451 C 333.762 182.599,335.550 182.705,339.442 182.711 C 343.945 182.717,345.263 182.632,343.625 182.439 C 340.788 182.106,338.058 182.110,335.060 182.451 M44.223 183.267 L 43.227 183.586 44.223 183.620 C 44.771 183.638,45.488 183.479,45.817 183.267 C 46.578 182.775,45.759 182.775,44.223 183.267 M59.363 183.267 C 59.691 183.479,60.408 183.638,60.956 183.620 L 61.952 183.586 60.956 183.267 C 59.421 182.775,58.602 182.775,59.363 183.267 M120.717 183.267 C 119.741 183.580,119.745 183.587,120.916 183.620 C 121.574 183.638,122.380 183.479,122.709 183.267 C 123.464 182.779,122.241 182.779,120.717 183.267 M136.255 183.267 C 136.584 183.479,137.390 183.638,138.048 183.620 C 139.219 183.587,139.223 183.580,138.247 183.267 C 136.724 182.779,135.500 182.779,136.255 183.267 M330.080 183.267 L 328.884 183.571 330.279 183.612 C 331.046 183.635,331.942 183.479,332.271 183.267 C 333.007 182.792,331.948 182.792,330.080 183.267 M347.012 183.267 C 347.341 183.479,348.058 183.638,348.606 183.620 L 349.602 183.586 348.606 183.267 C 347.070 182.775,346.251 182.775,347.012 183.267 M92.443 184.528 C 91.912 185.195,91.109 185.890,90.659 186.072 C 90.103 186.297,90.039 186.412,90.460 186.429 C 91.098 186.455,93.912 183.819,93.589 183.496 C 93.490 183.397,92.974 183.861,92.443 184.528 M41.036 184.054 C 40.707 184.242,39.825 184.625,39.075 184.904 C 38.325 185.184,37.894 185.473,38.116 185.547 C 38.569 185.698,42.231 184.213,42.231 183.879 C 42.231 183.580,41.739 183.652,41.036 184.054 M63.111 184.005 C 63.226 184.191,64.178 184.665,65.226 185.057 C 67.710 185.986,71.473 188.664,73.625 191.035 C 74.567 192.073,75.405 192.856,75.487 192.774 C 76.070 192.191,69.766 186.826,66.865 185.437 C 65.697 184.877,64.430 184.250,64.049 184.042 C 63.191 183.574,62.836 183.560,63.111 184.005 M117.709 184.016 C 117.501 184.208,116.614 184.592,115.737 184.869 C 114.048 185.403,112.255 186.454,113.035 186.454 C 113.290 186.454,113.610 186.275,113.745 186.056 C 113.880 185.837,114.294 185.646,114.665 185.633 C 115.590 185.599,119.474 183.740,118.705 183.698 C 118.366 183.680,117.917 183.823,117.709 184.016 M140.040 184.064 C 140.175 184.283,140.456 184.462,140.663 184.462 C 141.030 184.462,143.809 185.776,145.817 186.898 C 148.275 188.272,151.703 191.778,153.668 194.926 C 154.456 196.190,155.182 197.142,155.281 197.043 C 155.673 196.652,151.128 190.668,149.035 188.820 C 146.475 186.559,139.207 182.716,140.040 184.064 M256.773 184.064 L 255.976 184.406 256.773 184.406 C 257.211 184.406,257.928 184.252,258.367 184.064 L 259.163 183.721 258.367 183.721 C 257.928 183.721,257.211 183.875,256.773 184.064 M350.797 183.949 C 351.016 184.170,352.181 184.681,353.386 185.084 C 354.592 185.488,355.748 185.961,355.956 186.136 C 356.164 186.311,356.514 186.454,356.733 186.454 C 357.607 186.454,356.262 185.644,354.172 184.911 C 352.973 184.490,351.633 184.011,351.195 183.847 C 350.661 183.646,350.530 183.680,350.797 183.949 M252.191 185.080 C 251.205 185.362,250.757 185.600,251.195 185.608 C 251.633 185.616,252.888 185.373,253.984 185.069 C 255.080 184.765,255.528 184.527,254.980 184.541 C 254.432 184.555,253.177 184.797,252.191 185.080 M323.862 185.077 C 321.996 185.755,319.548 187.250,320.319 187.241 C 320.647 187.237,321.365 186.883,321.912 186.454 C 322.460 186.026,323.202 185.671,323.560 185.666 C 323.918 185.661,324.725 185.390,325.353 185.062 C 326.729 184.345,325.854 184.353,323.862 185.077 M35.386 186.666 C 33.573 187.610,32.637 188.446,33.394 188.446 C 33.599 188.446,33.990 188.177,34.263 187.849 C 34.536 187.520,34.961 187.247,35.208 187.242 C 35.455 187.237,36.106 186.883,36.653 186.454 C 37.959 185.433,37.656 185.484,35.386 186.666 M110.838 187.260 C 109.175 188.271,109.189 188.605,110.857 187.730 C 112.575 186.830,112.509 186.878,112.299 186.668 C 112.197 186.567,111.540 186.833,110.838 187.260 M169.644 190.806 C 170.664 192.986,171.577 194.691,171.673 194.595 C 171.769 194.500,171.650 194.018,171.410 193.525 C 171.169 193.033,170.416 191.426,169.736 189.956 C 169.056 188.485,168.340 187.183,168.145 187.063 C 167.950 186.942,168.624 188.627,169.644 190.806 M317.106 188.568 C 314.298 190.534,312.509 192.023,312.948 192.027 C 313.167 192.029,314.040 191.415,314.886 190.661 C 315.733 189.907,317.025 189.006,317.758 188.658 C 318.490 188.311,319.197 187.852,319.329 187.639 C 319.763 186.936,318.952 187.276,317.106 188.568 M29.858 190.588 C 27.080 192.907,23.967 196.016,24.424 196.016 C 24.580 196.016,25.827 194.892,27.195 193.518 C 28.562 192.144,30.352 190.576,31.173 190.032 C 31.993 189.489,32.665 188.909,32.667 188.745 C 32.671 188.263,32.550 188.343,29.858 190.588 M103.604 193.127 C 98.870 197.932,96.250 201.708,96.639 203.168 C 96.787 203.726,97.043 205.169,97.207 206.375 L 97.505 208.566 97.557 206.500 C 97.586 205.364,97.434 203.973,97.220 203.409 C 96.820 202.357,97.647 200.304,99.025 198.926 C 99.342 198.609,99.602 198.181,99.602 197.976 C 99.602 197.770,101.498 195.721,103.817 193.422 C 106.135 191.124,107.897 189.243,107.732 189.243 C 107.567 189.243,105.709 190.991,103.604 193.127 M362.160 189.515 C 362.165 189.694,362.927 190.371,363.853 191.020 C 364.780 191.668,365.285 191.884,364.976 191.499 C 364.227 190.567,362.149 189.103,362.160 189.515 M365.783 192.291 C 365.867 192.543,367.102 193.978,368.526 195.479 C 369.950 196.981,371.513 198.747,371.999 199.404 C 372.485 200.060,372.889 200.415,372.896 200.191 C 372.903 199.968,372.149 198.892,371.221 197.801 C 368.929 195.107,365.594 191.727,365.783 192.291 M310.269 194.134 C 309.332 195.071,307.849 196.729,306.972 197.819 C 306.096 198.909,305.199 199.933,304.980 200.094 C 304.723 200.282,304.737 200.388,305.020 200.392 C 305.261 200.396,305.889 199.821,306.415 199.115 C 307.648 197.459,310.281 194.509,311.554 193.357 C 312.102 192.861,312.420 192.450,312.261 192.443 C 312.103 192.436,311.206 193.197,310.269 194.134 M75.697 193.400 C 75.697 193.764,78.220 197.610,78.364 197.466 C 78.448 197.382,77.945 196.394,77.247 195.270 C 76.084 193.400,75.697 192.933,75.697 193.400 M171.952 196.281 C 172.319 197.808,172.510 197.952,172.510 196.703 C 172.510 196.132,172.323 195.549,172.096 195.408 C 171.824 195.240,171.775 195.541,171.952 196.281 M22.709 198.008 C 22.015 198.884,21.568 199.602,21.715 199.602 C 22.026 199.602,23.333 198.129,23.925 197.112 C 24.627 195.905,24.021 196.352,22.709 198.008 M155.412 198.028 C 155.394 198.368,155.530 198.816,155.714 199.024 C 155.899 199.232,156.370 200.478,156.762 201.793 C 157.153 203.108,157.656 204.363,157.879 204.582 C 158.153 204.851,158.186 204.722,157.981 204.183 C 157.814 203.745,157.546 202.849,157.386 202.191 C 156.974 200.497,155.452 197.288,155.412 198.028 M78.486 198.516 C 78.486 198.868,78.665 199.267,78.884 199.402 C 79.104 199.538,79.283 199.976,79.283 200.376 C 79.283 200.777,79.551 201.618,79.878 202.245 C 80.710 203.841,80.624 202.977,79.697 200.442 C 78.840 198.098,78.486 197.534,78.486 198.516 M172.538 198.283 C 172.628 199.317,173.251 200.195,173.279 199.326 C 173.294 198.846,173.127 198.343,172.908 198.207 C 172.689 198.072,172.523 198.106,172.538 198.283 M391.372 202.379 C 392.064 204.125,392.695 205.362,392.775 205.128 C 392.856 204.894,392.739 204.317,392.516 203.845 C 392.294 203.374,391.734 202.136,391.273 201.096 C 389.933 198.073,389.998 198.908,391.372 202.379 M173.510 201.793 C 174.587 207.624,174.701 211.556,174.701 242.629 L 174.701 275.100 167.034 275.208 L 159.367 275.316 159.262 244.730 L 159.156 214.143 159.160 244.821 L 159.163 275.498 166.335 275.611 C 170.279 275.674,173.913 275.624,174.411 275.502 L 175.316 275.279 175.159 241.922 C 175.008 209.897,174.797 203.883,173.747 201.594 C 173.299 200.619,173.294 200.623,173.510 201.793 M372.908 200.946 C 372.908 201.312,375.422 205.189,375.566 205.045 C 375.759 204.852,373.737 201.262,373.275 200.976 C 373.073 200.852,372.908 200.838,372.908 200.946 M304.226 201.825 C 304.093 202.172,303.984 212.008,303.984 223.683 L 303.984 244.911 306.275 247.939 C 307.535 249.605,308.786 251.057,309.056 251.166 C 309.326 251.275,308.477 250.060,307.170 248.468 L 304.793 245.571 304.774 223.383 C 304.764 211.180,304.691 201.195,304.612 201.195 C 304.533 201.195,304.359 201.479,304.226 201.825 M80.490 204.382 C 80.490 204.930,80.664 205.647,80.876 205.976 C 81.182 206.449,81.263 206.366,81.263 205.578 C 81.263 205.030,81.089 204.313,80.876 203.984 C 80.571 203.511,80.490 203.594,80.490 204.382 M375.730 205.996 C 375.712 206.336,375.860 206.784,376.058 206.992 C 376.257 207.200,376.820 208.715,377.310 210.359 C 377.800 212.002,378.276 213.132,378.369 212.871 C 378.462 212.609,378.347 212.038,378.113 211.602 C 377.880 211.166,377.678 210.484,377.665 210.086 C 377.632 209.130,375.773 205.199,375.730 205.996 M158.241 207.769 C 158.231 208.865,158.377 210.120,158.566 210.558 C 159.034 211.649,159.049 209.597,158.589 207.371 L 158.259 205.777 158.241 207.769 M393.015 207.271 C 393.446 208.653,394.328 212.612,394.989 216.135 C 395.599 219.380,395.549 217.980,394.876 212.948 C 394.516 210.262,393.374 206.375,392.944 206.375 C 392.829 206.375,392.861 206.778,393.015 207.271 M81.344 208.367 C 81.331 209.133,81.469 210.478,81.650 211.355 L 81.980 212.948 82.003 211.554 C 82.016 210.787,81.877 209.442,81.696 208.566 L 81.367 206.972 81.344 208.367 M97.809 241.852 L 97.809 275.100 90.142 275.208 L 82.475 275.316 82.369 244.331 L 82.263 213.347 82.267 244.422 L 82.271 275.498 89.442 275.611 C 93.386 275.674,97.017 275.625,97.510 275.504 L 98.406 275.284 98.359 243.120 C 98.333 225.430,98.199 210.427,98.060 209.780 C 97.922 209.133,97.809 223.566,97.809 241.852 M378.554 214.542 C 378.547 215.199,378.696 216.096,378.884 216.534 C 379.353 217.623,379.353 215.804,378.884 214.343 C 378.573 213.371,378.565 213.376,378.554 214.542 M379.435 223.307 C 379.436 225.936,379.500 226.960,379.578 225.582 C 379.656 224.204,379.656 222.052,379.577 220.801 C 379.498 219.550,379.434 220.677,379.435 223.307 M394.900 230.279 C 394.615 232.361,394.212 234.712,394.004 235.504 C 393.451 237.611,393.621 238.314,394.234 236.454 C 394.523 235.578,394.773 234.215,394.790 233.426 C 394.807 232.637,395.012 231.443,395.245 230.773 C 395.479 230.103,395.613 228.866,395.544 228.025 C 395.453 226.912,395.277 227.528,394.900 230.279 M378.685 230.677 C 378.531 231.801,378.494 232.810,378.603 232.920 C 378.713 233.029,378.929 232.199,379.084 231.076 C 379.238 229.952,379.275 228.943,379.165 228.833 C 379.056 228.724,378.840 229.554,378.685 230.677 M376.593 238.160 C 375.384 241.278,375.482 241.835,376.716 238.862 C 377.258 237.557,377.653 236.346,377.595 236.170 C 377.536 235.995,377.085 236.890,376.593 238.160 M393.028 239.044 C 392.878 239.515,392.846 239.990,392.955 240.100 C 393.065 240.209,393.277 239.914,393.426 239.442 C 393.576 238.971,393.609 238.496,393.499 238.386 C 393.389 238.277,393.177 238.573,393.028 239.044 M374.163 243.453 C 372.954 245.398,372.536 246.385,373.254 245.598 C 373.780 245.021,375.798 241.434,375.595 241.434 C 375.498 241.434,374.853 242.343,374.163 243.453 M391.563 243.625 C 391.432 244.064,391.193 244.781,391.032 245.219 C 390.781 245.902,390.835 245.887,391.413 245.112 C 391.784 244.615,392.023 243.898,391.944 243.518 C 391.819 242.920,391.769 242.934,391.563 243.625 M371.822 247.131 C 371.450 247.948,369.389 250.394,366.534 253.409 C 365.986 253.987,364.776 254.959,363.845 255.570 C 362.913 256.180,362.151 256.805,362.151 256.958 C 362.151 257.111,361.658 257.489,361.056 257.799 C 358.659 259.030,357.346 259.869,357.530 260.053 C 357.636 260.159,358.226 259.897,358.842 259.471 C 359.457 259.044,360.237 258.596,360.576 258.475 C 363.289 257.504,374.362 246.215,372.601 246.215 C 372.402 246.215,372.052 246.627,371.822 247.131 M387.748 251.605 C 387.059 252.804,386.621 253.783,386.774 253.782 C 387.074 253.778,389.309 249.734,389.116 249.541 C 389.052 249.477,388.436 250.406,387.748 251.605 M310.367 252.737 C 310.910 253.256,311.431 253.613,311.525 253.530 C 311.739 253.339,310.102 251.793,309.686 251.793 C 309.517 251.793,309.824 252.218,310.367 252.737 M384.347 256.720 C 383.327 258.109,380.919 260.829,378.995 262.765 C 377.072 264.701,376.041 265.909,376.706 265.449 C 377.812 264.682,382.242 260.145,383.665 258.320 C 385.646 255.781,386.515 254.509,386.368 254.362 C 386.276 254.270,385.366 255.332,384.347 256.720 M312.749 254.761 C 312.749 255.018,317.456 258.327,319.223 259.313 C 320.045 259.771,320.717 259.997,320.717 259.815 C 320.717 259.633,320.000 259.160,319.124 258.765 C 318.247 258.370,317.530 257.894,317.530 257.708 C 317.530 257.523,317.293 257.371,317.004 257.371 C 316.715 257.371,315.745 256.743,314.849 255.976 C 313.321 254.668,312.749 254.337,312.749 254.761 M354.183 261.174 C 353.197 261.686,352.659 262.107,352.988 262.110 C 353.317 262.113,354.392 261.683,355.378 261.155 C 356.365 260.627,356.902 260.206,356.574 260.220 C 356.245 260.233,355.169 260.663,354.183 261.174 M324.050 261.556 C 324.677 261.884,325.484 262.144,325.842 262.136 C 326.201 262.127,325.891 261.858,325.153 261.538 C 323.401 260.777,322.581 260.791,324.050 261.556 M327.092 262.550 C 327.420 262.762,327.958 262.936,328.287 262.936 C 328.818 262.936,328.818 262.893,328.287 262.550 C 327.958 262.337,327.420 262.164,327.092 262.164 C 326.560 262.164,326.560 262.207,327.092 262.550 M350.398 262.550 C 350.107 263.021,350.497 263.021,351.594 262.550 C 352.362 262.220,352.359 262.206,351.518 262.179 C 351.037 262.164,350.534 262.331,350.398 262.550 M330.279 263.347 C 330.827 263.522,331.633 263.671,332.072 263.677 L 332.869 263.689 332.072 263.347 C 331.633 263.158,330.827 263.009,330.279 263.016 L 329.283 263.028 330.279 263.347 M346.813 263.347 L 346.016 263.689 346.813 263.677 C 347.251 263.671,348.058 263.522,348.606 263.347 L 349.602 263.028 348.606 263.016 C 348.058 263.009,347.251 263.158,346.813 263.347 M336.771 264.041 C 338.479 264.116,341.169 264.116,342.747 264.040 C 344.326 263.965,342.928 263.904,339.641 263.904 C 336.355 263.905,335.063 263.967,336.771 264.041 M303.984 297.396 C 303.984 322.488,303.870 330.677,303.519 330.677 C 303.264 330.677,303.148 330.771,303.263 330.886 C 304.772 332.395,304.794 331.917,304.774 298.109 C 304.763 280.246,304.844 265.541,304.955 265.430 C 305.065 265.320,306.371 266.200,307.857 267.386 C 311.007 269.902,312.744 271.054,313.001 270.797 C 313.101 270.697,312.413 270.159,311.472 269.603 C 310.531 269.046,308.800 267.765,307.626 266.756 C 303.538 263.244,303.984 259.492,303.984 297.396 M374.293 266.943 C 373.889 267.389,372.955 268.128,372.216 268.584 C 371.478 269.040,370.962 269.501,371.069 269.608 C 371.287 269.826,372.152 269.254,374.087 267.613 C 374.809 267.002,375.315 266.418,375.214 266.316 C 375.112 266.214,374.698 266.496,374.293 266.943 M369.721 270.049 C 369.721 270.229,368.903 270.785,367.903 271.285 C 366.902 271.784,366.177 272.286,366.291 272.400 C 366.532 272.641,369.962 270.696,370.322 270.115 C 370.455 269.898,370.375 269.721,370.143 269.721 C 369.911 269.721,369.721 269.869,369.721 270.049 M313.553 271.239 C 313.561 271.571,319.882 274.673,320.102 274.453 C 320.186 274.369,318.746 273.549,316.901 272.632 C 315.056 271.715,313.549 271.088,313.553 271.239 M363.347 273.525 C 362.361 274.036,361.772 274.466,362.040 274.478 C 362.454 274.499,365.202 273.140,365.704 272.666 C 366.137 272.259,364.964 272.686,363.347 273.525 M360.474 274.719 C 360.355 274.838,359.115 275.287,357.718 275.716 C 355.878 276.282,355.618 276.432,356.773 276.263 C 358.350 276.032,361.955 274.600,361.122 274.536 C 360.885 274.517,360.593 274.600,360.474 274.719 M323.705 275.911 C 324.363 276.212,325.383 276.466,325.973 276.476 C 326.562 276.486,327.155 276.673,327.291 276.892 C 327.426 277.112,328.109 277.272,328.808 277.250 L 330.080 277.209 328.884 276.889 C 328.227 276.714,326.650 276.284,325.379 275.934 C 322.619 275.175,322.082 275.168,323.705 275.911 M353.586 276.892 L 352.390 277.197 353.463 277.244 C 354.052 277.270,354.645 277.112,354.781 276.892 C 354.916 276.673,354.972 276.515,354.904 276.541 C 354.836 276.567,354.243 276.725,353.586 276.892 M331.673 277.689 C 332.112 277.878,333.008 278.023,333.665 278.013 L 334.861 277.993 333.665 277.689 C 333.008 277.522,332.112 277.377,331.673 277.366 L 330.876 277.347 331.673 277.689 M349.004 277.689 L 348.008 278.008 349.004 278.008 C 349.552 278.008,350.448 277.865,350.996 277.689 L 351.992 277.370 350.996 277.370 C 350.448 277.370,349.552 277.514,349.004 277.689 M338.944 278.383 C 340.314 278.460,342.555 278.460,343.924 278.383 C 345.294 278.305,344.173 278.241,341.434 278.241 C 338.695 278.241,337.575 278.305,338.944 278.383 " stroke="none" fill="#b4b7b7" fill-rule="evenodd"></path><path id="path4" d="M50.000 167.933 C 49.781 168.035,48.257 168.279,46.614 168.476 C 43.761 168.817,38.589 170.130,37.138 170.883 C 36.762 171.078,35.289 171.783,33.865 172.451 C 30.535 174.012,26.949 176.554,23.587 179.735 L 20.916 182.263 20.717 176.888 L 20.518 171.514 12.749 171.514 L 4.980 171.514 4.980 223.307 L 4.980 275.100 12.749 275.100 L 20.518 275.100 20.620 237.882 L 20.721 200.665 22.391 198.440 C 28.287 190.586,35.573 185.514,44.223 183.242 C 45.647 182.868,46.385 182.541,45.863 182.516 C 40.439 182.255,28.778 189.495,23.101 196.649 C 22.768 197.068,22.007 198.054,21.410 198.840 L 20.323 200.269 20.221 237.485 L 20.120 274.701 12.849 274.810 L 5.578 274.918 5.578 223.307 L 5.578 171.695 12.849 171.804 L 20.120 171.912 20.224 176.892 C 20.363 183.504,20.264 183.384,23.272 180.570 C 24.673 179.259,26.509 177.671,27.352 177.042 C 28.195 176.412,28.944 175.762,29.017 175.598 C 29.090 175.433,29.311 175.299,29.508 175.299 C 29.704 175.299,30.810 174.704,31.964 173.977 C 33.119 173.249,34.691 172.424,35.458 172.141 C 36.225 171.859,37.390 171.394,38.048 171.108 C 38.705 170.822,40.050 170.372,41.036 170.109 C 42.022 169.846,43.187 169.484,43.625 169.306 C 44.064 169.128,45.677 168.874,47.211 168.743 C 48.745 168.611,51.237 168.393,52.749 168.258 C 56.218 167.947,64.049 168.778,66.959 169.766 C 68.179 170.179,69.523 170.502,69.947 170.482 C 71.143 170.425,66.221 168.881,63.546 168.473 C 60.829 168.058,50.605 167.651,50.000 167.933 M124.303 168.193 C 121.233 168.595,113.928 170.323,112.790 170.918 C 112.439 171.101,111.141 171.636,109.907 172.107 C 104.899 174.017,98.804 178.362,93.845 183.555 C 90.647 186.904,90.487 186.956,89.433 184.966 C 87.421 181.166,78.538 173.603,74.046 171.866 C 73.092 171.497,72.140 171.043,71.932 170.856 C 71.286 170.278,70.792 170.485,71.315 171.116 C 71.588 171.444,72.055 171.713,72.354 171.713 C 75.570 171.713,85.894 180.152,89.291 185.558 C 90.448 187.398,90.844 187.245,94.520 183.530 C 105.864 172.067,121.369 166.600,137.175 168.490 C 143.584 169.257,146.683 170.175,152.191 172.942 C 157.203 175.459,162.162 179.837,165.692 184.861 C 167.537 187.485,168.343 188.988,170.717 194.223 C 174.030 201.530,174.530 208.302,174.488 245.335 L 174.455 274.933 166.908 274.817 C 162.758 274.753,159.362 274.840,159.362 275.009 C 159.362 275.178,162.814 275.267,167.032 275.208 L 174.701 275.100 174.827 244.024 C 174.988 204.502,174.714 201.668,169.683 190.913 C 166.900 184.962,161.063 177.739,157.196 175.460 C 156.525 175.065,155.666 174.453,155.286 174.101 C 154.907 173.748,153.472 172.955,152.099 172.337 C 150.725 171.719,149.153 170.985,148.606 170.704 C 144.291 168.496,131.828 167.208,124.303 168.193 M255.378 169.164 L 253.586 169.713 255.179 169.497 C 256.056 169.378,258.346 169.183,260.269 169.063 L 263.764 168.844 263.655 175.739 L 263.546 182.634 262.550 182.929 C 261.622 183.204,261.636 183.219,262.749 183.146 L 263.944 183.068 263.944 175.896 L 263.944 168.725 260.558 168.670 C 258.651 168.639,256.388 168.855,255.378 169.164 M330.279 169.504 C 320.625 171.575,312.025 175.648,306.629 180.704 C 306.379 180.938,305.687 181.448,305.091 181.838 L 304.007 182.547 303.896 177.030 L 303.785 171.514 296.414 171.514 L 289.044 171.514 289.042 251.096 L 289.041 330.677 289.143 251.195 L 289.245 171.713 296.415 171.713 L 303.586 171.713 303.586 177.291 C 303.586 183.770,303.750 183.974,306.744 181.231 C 310.305 177.969,318.319 173.293,322.311 172.149 C 323.297 171.867,324.446 171.454,324.864 171.233 C 325.283 171.012,326.538 170.679,327.653 170.493 C 328.769 170.308,330.667 169.930,331.873 169.653 C 334.745 168.993,347.660 168.983,350.598 169.638 C 353.668 170.324,356.014 170.669,355.770 170.400 C 354.090 168.544,337.476 167.960,330.279 169.504 M247.694 171.106 C 238.657 174.276,230.462 179.980,225.212 186.753 C 223.612 188.816,223.528 188.488,223.414 179.781 L 223.307 171.514 215.737 171.514 L 208.167 171.514 208.167 223.307 L 208.167 275.100 215.737 275.100 L 223.307 275.100 223.506 241.018 C 223.698 208.249,223.735 206.891,224.471 205.759 C 227.235 201.511,233.333 194.987,236.853 192.511 C 238.562 191.309,240.722 189.929,242.231 189.073 C 243.217 188.515,243.805 188.055,243.538 188.053 C 241.190 188.029,230.617 196.648,227.170 201.394 C 226.374 202.490,225.626 203.476,225.507 203.586 C 225.389 203.695,224.800 204.543,224.199 205.470 L 223.108 207.154 223.108 241.027 L 223.108 274.900 215.736 274.900 L 208.364 274.900 208.465 223.406 L 208.566 171.912 215.837 171.804 L 223.108 171.695 223.108 180.270 C 223.108 189.495,223.184 189.785,225.036 187.588 C 228.576 183.388,233.056 179.384,237.126 176.782 C 242.204 173.535,247.499 171.203,251.299 170.541 C 253.237 170.203,253.990 169.717,252.556 169.730 C 252.027 169.735,249.839 170.354,247.694 171.106 M356.574 170.913 C 356.902 171.123,358.157 171.600,359.363 171.972 C 368.658 174.844,379.940 183.709,385.779 192.729 C 388.603 197.091,389.664 198.239,387.539 194.633 C 382.350 185.827,373.847 178.020,364.764 173.721 C 360.440 171.675,354.678 169.699,356.574 170.913 M47.809 182.036 C 47.261 182.191,49.143 182.313,51.992 182.307 C 66.400 182.273,75.818 188.787,80.168 201.793 C 82.141 207.691,82.163 208.105,82.343 242.738 L 82.513 275.316 90.161 275.208 L 97.809 275.100 97.911 244.361 C 97.967 227.455,97.855 212.396,97.662 210.895 C 97.439 209.159,97.294 220.296,97.262 241.534 L 97.211 274.900 90.040 274.900 L 82.869 274.900 82.843 244.522 C 82.816 210.941,82.634 207.555,80.516 201.202 C 80.043 199.782,79.482 198.446,79.270 198.234 C 79.058 198.022,78.884 197.588,78.884 197.269 C 78.884 196.950,78.436 196.101,77.888 195.383 C 77.341 194.665,76.892 193.950,76.892 193.795 C 76.892 191.459,66.768 184.004,62.351 183.087 C 61.693 182.951,59.900 182.577,58.367 182.257 C 55.499 181.658,49.576 181.534,47.809 182.036 M125.052 181.854 C 124.953 181.953,123.892 182.213,122.695 182.431 C 119.294 183.051,118.190 183.302,117.331 183.648 C 115.832 184.251,110.160 187.012,109.960 187.235 C 109.851 187.357,108.963 187.975,107.989 188.608 C 105.255 190.381,99.894 195.937,97.815 199.151 L 95.943 202.046 96.560 205.107 C 97.126 207.910,97.163 207.983,97.010 205.976 C 96.917 204.771,96.735 203.419,96.603 202.971 C 95.616 199.605,108.927 187.064,115.855 184.834 C 116.666 184.572,117.510 184.230,117.729 184.074 C 120.037 182.425,131.803 181.798,137.251 183.034 C 147.058 185.259,154.922 192.794,157.453 202.390 C 158.357 205.818,158.556 206.325,158.391 204.781 C 157.346 195.009,148.243 185.018,138.446 182.892 C 137.131 182.607,135.428 182.217,134.661 182.025 C 133.233 181.669,125.377 181.529,125.052 181.854 M332.558 182.251 C 331.073 182.530,329.729 182.898,329.570 183.070 C 329.412 183.241,329.910 183.257,330.677 183.105 C 338.304 181.595,346.303 182.099,352.941 184.509 C 354.120 184.937,355.176 185.196,355.287 185.085 C 355.522 184.850,353.595 184.064,352.786 184.064 C 352.485 184.064,352.140 183.904,352.019 183.709 C 351.899 183.514,351.216 183.255,350.502 183.134 C 349.788 183.012,348.307 182.710,347.211 182.461 C 344.226 181.784,335.691 181.662,332.558 182.251 M255.976 183.640 C 255.538 183.815,253.835 184.273,252.191 184.658 C 250.548 185.042,249.024 185.482,248.805 185.634 C 248.586 185.787,247.642 186.153,246.707 186.448 C 245.773 186.743,244.810 187.223,244.567 187.516 C 244.085 188.097,244.628 188.255,245.239 187.712 C 246.576 186.524,255.769 183.945,260.159 183.527 C 260.926 183.454,260.478 183.378,259.163 183.358 C 257.849 183.337,256.414 183.464,255.976 183.640 M326.295 183.656 C 325.966 183.844,325.109 184.216,324.390 184.483 C 323.670 184.750,323.172 185.057,323.281 185.167 C 323.462 185.348,324.788 184.936,326.892 184.044 C 327.331 183.858,328.048 183.628,328.486 183.533 C 328.990 183.423,328.844 183.351,328.088 183.337 C 327.430 183.324,326.624 183.468,326.295 183.656 M320.120 186.222 C 314.406 189.289,304.382 198.556,304.382 200.770 C 304.382 201.004,304.203 201.195,303.984 201.195 C 303.723 201.195,303.586 208.786,303.586 223.171 L 303.586 245.147 305.250 247.374 C 308.327 251.492,314.076 256.882,317.143 258.523 C 319.346 259.702,318.896 259.243,315.538 256.886 C 312.141 254.502,309.026 251.480,306.242 247.867 L 303.984 244.938 303.984 223.683 C 303.984 203.078,304.086 201.043,305.171 200.000 C 305.285 199.890,306.096 198.907,306.972 197.813 C 310.327 193.629,315.903 188.916,319.522 187.206 C 320.508 186.739,321.668 186.111,322.101 185.808 C 323.332 184.947,321.960 185.234,320.120 186.222 M356.398 185.844 C 356.823 186.166,357.307 186.435,357.474 186.442 C 359.109 186.510,367.154 193.052,370.834 197.306 C 372.091 198.759,372.426 199.263,374.516 202.849 C 376.610 206.440,378.779 212.737,379.291 216.708 L 379.577 218.924 379.629 216.961 C 379.658 215.880,379.506 214.446,379.292 213.773 C 376.858 206.132,375.425 202.720,374.004 201.185 C 373.621 200.771,373.307 200.322,373.307 200.188 C 373.307 199.510,370.562 196.115,367.824 193.404 C 364.374 189.989,362.113 188.345,357.993 186.256 C 355.755 185.121,355.281 184.999,356.398 185.844 M388.859 197.498 C 388.851 197.765,389.166 198.572,389.558 199.291 C 390.359 200.758,392.237 205.649,392.585 207.171 C 394.229 214.366,394.412 214.980,394.245 212.749 C 393.969 209.057,388.937 194.809,388.859 197.498 M158.858 209.960 C 158.976 212.042,159.138 213.820,159.218 213.911 C 159.520 214.258,159.291 207.731,158.974 206.972 C 158.784 206.515,158.734 207.790,158.858 209.960 M394.468 216.335 C 394.450 217.102,394.608 217.998,394.821 218.327 C 395.306 219.078,395.306 217.452,394.821 215.936 C 394.528 215.024,394.499 215.057,394.468 216.335 M395.365 222.908 C 395.366 225.100,395.433 225.945,395.513 224.787 C 395.594 223.630,395.593 221.837,395.511 220.803 C 395.430 219.770,395.364 220.717,395.365 222.908 M379.829 223.506 C 379.829 225.807,379.895 226.748,379.975 225.598 C 380.055 224.447,380.055 222.565,379.975 221.414 C 379.895 220.264,379.829 221.205,379.829 223.506 M394.654 228.744 C 394.534 229.479,394.160 231.755,393.825 233.804 C 393.489 235.852,393.038 237.857,392.822 238.259 C 392.607 238.662,392.430 239.364,392.430 239.820 C 392.430 240.275,392.269 240.960,392.073 241.340 C 391.876 241.721,391.403 242.839,391.022 243.825 C 389.486 247.799,386.330 253.474,384.065 256.334 C 380.411 260.949,377.027 264.407,373.904 266.717 C 373.028 267.365,372.251 268.037,372.178 268.211 C 372.105 268.384,371.853 268.526,371.618 268.526 C 371.383 268.526,370.636 268.936,369.958 269.438 C 366.051 272.327,356.578 276.019,350.598 276.984 C 347.762 277.441,336.385 277.548,332.271 277.155 L 329.681 276.908 332.869 277.521 C 338.894 278.678,350.305 277.971,356.539 276.054 C 361.045 274.668,368.961 271.135,369.721 270.172 C 369.831 270.033,370.421 269.661,371.033 269.345 C 379.054 265.209,390.114 250.351,392.847 240.040 C 394.289 234.600,395.472 228.009,395.077 227.614 C 394.964 227.501,394.774 228.010,394.654 228.744 M379.193 230.141 C 376.933 249.335,359.839 263.944,339.641 263.944 C 330.763 263.944,327.707 263.317,320.941 260.107 C 320.078 259.698,319.275 259.363,319.155 259.363 C 318.740 259.363,321.719 261.227,322.510 261.463 C 322.948 261.593,324.114 261.999,325.100 262.364 C 332.058 264.943,344.224 265.640,349.176 263.745 C 349.629 263.572,350.807 263.205,351.793 262.930 C 353.913 262.340,361.450 258.703,362.450 257.788 C 362.834 257.437,363.775 256.715,364.542 256.183 C 371.763 251.179,380.173 236.156,379.611 229.265 C 379.497 227.867,379.450 227.966,379.193 230.141 M303.769 264.243 C 303.665 264.517,303.626 279.622,303.684 297.809 L 303.790 330.876 303.887 297.496 C 303.997 259.538,303.570 263.243,307.449 266.604 C 310.662 269.388,319.559 274.502,321.190 274.502 C 321.500 274.502,321.923 274.655,322.131 274.842 C 322.669 275.324,326.272 276.251,326.546 275.978 C 326.671 275.852,325.994 275.550,325.040 275.306 C 319.239 273.821,310.726 269.149,306.375 265.062 C 304.902 263.678,304.083 263.421,303.769 264.243 M327.490 276.494 C 327.819 276.706,328.446 276.880,328.884 276.880 C 329.544 276.880,329.579 276.814,329.084 276.494 C 328.755 276.282,328.127 276.108,327.689 276.108 C 327.029 276.108,326.995 276.174,327.490 276.494 M292.928 330.974 C 294.846 331.047,297.983 331.047,299.900 330.974 C 301.818 330.901,300.249 330.841,296.414 330.841 C 292.580 330.841,291.011 330.901,292.928 330.974 " stroke="none" fill="#949494" fill-rule="evenodd"></path></g></svg>